M48
; DRILL file {KiCad (5.1.4)-1} date 12/15/2019 9:47:09 PM
; FORMAT={-:-/ absolute / metric / decimal}
; #@! TF.CreationDate,2019-12-15T21:47:09+01:00
; #@! TF.GenerationSoftware,Kicad,Pcbnew,(5.1.4)-1
; #@! TF.FileFunction,Plated,1,2,PTH
FMAT,2
METRIC
T1C0.400
T2C0.600
T3C0.750
T4C0.800
T5C1.000
%
G90
G05
T1
X127.827Y-124.401
X131.427Y-69.701
X133.927Y-72.301
X136.527Y-69.701
X140.527Y-71.201
X143.027Y-69.501
X143.819Y-120.543
X144.527Y-123.501
X145.727Y-70.801
X147.027Y-90.301
X147.027Y-120.501
X148.127Y-69.601
X148.627Y-90.801
X148.627Y-95.301
X148.627Y-99.601
X148.677Y-106.251
X149.127Y-74.701
X149.527Y-82.501
X149.627Y-123.301
X149.727Y-113.301
X152.127Y-120.401
X154.627Y-123.301
X157.227Y-120.401
X158.227Y-80.901
X159.627Y-123.301
X159.702Y-68.226
X161.027Y-71.001
X161.911Y-71.517
X162.327Y-120.301
X163.427Y-73.201
X163.527Y-70.801
X165.177Y-93.851
X165.227Y-100.301
X166.407Y-122.401
X169.627Y-74.001
X169.927Y-120.401
X172.227Y-123.301
X172.427Y-76.801
X172.577Y-115.151
X172.627Y-114.351
X172.727Y-107.851
X173.727Y-69.601
X174.327Y-110.851
X174.777Y-72.201
X174.882Y-111.515
X175.027Y-120.401
X175.327Y-116.351
X176.077Y-115.651
X176.477Y-106.301
X176.527Y-107.151
X176.927Y-78.601
X177.127Y-73.401
X177.252Y-117.401
X177.302Y-123.401
X177.377Y-80.351
X178.327Y-89.751
X178.477Y-115.901
X178.627Y-100.451
X178.752Y-97.476
X178.773Y-90.515
X178.927Y-108.851
X178.977Y-73.301
X179.102Y-120.026
X179.527Y-93.291
X179.552Y-99.776
X179.727Y-92.451
X180.202Y-94.076
X180.227Y-96.951
X180.277Y-98.001
X180.427Y-117.351
X181.023Y-109.536
X181.027Y-108.601
X181.527Y-73.451
X181.977Y-120.501
X182.327Y-123.401
X183.027Y-110.651
X183.327Y-99.351
X183.439Y-75.013
X183.527Y-106.601
X183.627Y-97.551
X184.002Y-114.426
X184.227Y-99.951
X184.877Y-74.801
X185.127Y-120.401
X187.377Y-104.951
X189.527Y-110.451
X190.289Y-110.289
X190.447Y-104.621
X190.877Y-77.101
X192.827Y-69.426
X193.657Y-108.841
X197.127Y-112.251
T2
X198.602Y-101.576
T3
X165.227Y-104.001
X167.227Y-104.001
X169.227Y-104.001
X171.227Y-104.001
X197.277Y-67.376
X197.277Y-69.376
X197.277Y-71.376
X197.277Y-73.376
X188.127Y-64.801
X190.127Y-64.801
X192.127Y-64.801
X163.827Y-82.101
X165.827Y-82.101
X167.827Y-82.101
X169.827Y-82.101
X168.627Y-64.801
X170.627Y-64.801
X172.627Y-64.801
X160.027Y-64.801
X162.027Y-64.801
X164.027Y-64.801
X197.202Y-118.676
X197.202Y-120.676
X197.202Y-122.676
X197.202Y-124.676
X165.227Y-97.626
X167.227Y-97.626
X169.227Y-97.626
X171.227Y-97.626
X197.277Y-104.501
X197.277Y-106.501
X197.277Y-108.501
X197.277Y-110.501
X179.327Y-64.801
X181.327Y-64.801
X183.327Y-64.801
X150.827Y-79.501
X152.827Y-79.501
X154.827Y-79.501
X156.827Y-79.501
X142.827Y-64.801
X144.827Y-64.801
X146.827Y-64.801
X165.227Y-91.251
X167.227Y-91.251
X169.227Y-91.251
X171.227Y-91.251
X189.377Y-130.001
X191.377Y-130.001
X193.377Y-130.001
X195.377Y-130.001
X197.252Y-78.001
X197.252Y-80.001
X197.252Y-82.001
X197.252Y-84.001
X151.427Y-64.801
X153.427Y-64.801
X155.427Y-64.801
X178.727Y-130.001
X180.727Y-130.001
X182.727Y-130.001
X184.727Y-130.001
X125.527Y-64.801
X127.527Y-64.801
X129.527Y-64.801
X150.827Y-84.701
X152.827Y-84.701
X154.827Y-84.701
X156.827Y-84.701
X197.277Y-93.901
X197.277Y-95.901
X197.277Y-97.901
X197.277Y-99.901
X134.227Y-64.801
X136.227Y-64.801
X138.227Y-64.801
T4
X118.802Y-115.501
X118.827Y-99.601
X124.917Y-98.806
X125.082Y-114.356
X141.027Y-87.501
X145.524Y-97.301
X147.627Y-86.601
X149.777Y-102.851
X151.027Y-69.201
X154.427Y-98.851
X154.727Y-109.301
X156.927Y-94.301
X158.427Y-78.651
X172.027Y-84.251
X180.952Y-82.276
X184.784Y-94.619
X184.824Y-102.498
T5
X111.017Y-116.311
X111.017Y-118.811
X110.977Y-84.261
X110.977Y-86.761
X111.017Y-100.611
X111.017Y-103.111
X111.017Y-92.761
X111.017Y-95.261
X110.967Y-68.621
X110.967Y-71.121
X126.127Y-131.001
X128.667Y-131.001
X131.207Y-131.001
X133.747Y-131.001
X136.287Y-131.001
X138.827Y-131.001
X141.367Y-131.001
X143.907Y-131.001
X146.447Y-131.001
X148.987Y-131.001
X151.527Y-131.001
X154.067Y-131.001
X156.607Y-131.001
X159.147Y-131.001
X161.687Y-131.001
X164.227Y-131.001
X110.957Y-76.361
X110.957Y-78.861
X111.017Y-108.461
X111.017Y-110.961
X111.017Y-124.161
X111.017Y-126.661
X158.227Y-109.581
X158.227Y-112.121
X158.227Y-114.661
X158.227Y-117.201
X160.767Y-109.581
X160.767Y-112.121
X160.767Y-114.661
X160.767Y-117.201
T0
M30
