solid
 facet normal  0.000000e+00  1.000000e+00 -0.000000e+00
   outer loop
     vertex  5.300000e+00  3.500000e+00  1.000000e-01
     vertex -5.300000e+00  3.500000e+00  1.000000e-01
     vertex -5.300000e+00  3.500000e+00  4.500000e+00
   endloop
 endfacet
 facet normal  0.000000e+00  1.000000e+00 -0.000000e+00
   outer loop
     vertex  5.300000e+00  3.500000e+00  1.000000e-01
     vertex -5.300000e+00  3.500000e+00  4.500000e+00
     vertex  5.300000e+00  3.500000e+00  4.500000e+00
   endloop
 endfacet
 facet normal  1.000000e+00  0.000000e+00  0.000000e+00
   outer loop
     vertex  5.300000e+00 -3.500000e+00  1.000000e-01
     vertex  5.300000e+00  3.500000e+00  1.000000e-01
     vertex  5.300000e+00  3.500000e+00  4.500000e+00
   endloop
 endfacet
 facet normal  1.000000e+00  0.000000e+00 -0.000000e+00
   outer loop
     vertex  5.300000e+00 -3.500000e+00  1.000000e-01
     vertex  5.300000e+00  3.500000e+00  4.500000e+00
     vertex  5.300000e+00 -3.500000e+00  4.500000e+00
   endloop
 endfacet
 facet normal  0.000000e+00 -1.000000e+00  0.000000e+00
   outer loop
     vertex -5.300000e+00 -3.500000e+00  1.000000e-01
     vertex  5.300000e+00 -3.500000e+00  1.000000e-01
     vertex  5.300000e+00 -3.500000e+00  4.500000e+00
   endloop
 endfacet
 facet normal  0.000000e+00 -1.000000e+00  0.000000e+00
   outer loop
     vertex -5.300000e+00 -3.500000e+00  1.000000e-01
     vertex  5.300000e+00 -3.500000e+00  4.500000e+00
     vertex -5.300000e+00 -3.500000e+00  4.500000e+00
   endloop
 endfacet
 facet normal -1.000000e+00  0.000000e+00  0.000000e+00
   outer loop
     vertex -5.300000e+00  3.500000e+00  1.000000e-01
     vertex -5.300000e+00 -3.500000e+00  1.000000e-01
     vertex -5.300000e+00 -3.500000e+00  4.500000e+00
   endloop
 endfacet
 facet normal -1.000000e+00  0.000000e+00  0.000000e+00
   outer loop
     vertex -5.300000e+00  3.500000e+00  1.000000e-01
     vertex -5.300000e+00 -3.500000e+00  4.500000e+00
     vertex -5.300000e+00  3.500000e+00  4.500000e+00
   endloop
 endfacet
 facet normal  0.000000e+00  0.000000e+00 -1.000000e+00
   outer loop
     vertex  5.300000e+00 -3.500000e+00  1.000000e-01
     vertex -5.300000e+00 -3.500000e+00  1.000000e-01
     vertex  5.300000e+00  3.500000e+00  1.000000e-01
   endloop
 endfacet
 facet normal  0.000000e+00  0.000000e+00 -1.000000e+00
   outer loop
     vertex -5.300000e+00 -3.500000e+00  1.000000e-01
     vertex -5.300000e+00  3.500000e+00  1.000000e-01
     vertex  5.300000e+00  3.500000e+00  1.000000e-01
   endloop
 endfacet
 facet normal -0.000000e+00  0.000000e+00  1.000000e+00
   outer loop
     vertex  5.300000e+00  3.500000e+00  4.500000e+00
     vertex -5.300000e+00 -3.500000e+00  4.500000e+00
     vertex  5.300000e+00 -3.500000e+00  4.500000e+00
   endloop
 endfacet
 facet normal  0.000000e+00  0.000000e+00  1.000000e+00
   outer loop
     vertex  5.300000e+00  3.500000e+00  4.500000e+00
     vertex -5.300000e+00  3.500000e+00  4.500000e+00
     vertex -5.300000e+00 -3.500000e+00  4.500000e+00
   endloop
 endfacet
 facet normal -1.000000e+00 -0.000000e+00 -0.000000e+00
   outer loop
     vertex -1.590000e+00 -2.120000e+00  1.000000e-01
     vertex -1.590000e+00 -2.120000e+00  0.000000e+00
     vertex -1.590000e+00 -4.620000e+00  1.000000e-01
   endloop
 endfacet
 facet normal -1.000000e+00  0.000000e+00  0.000000e+00
   outer loop
     vertex -1.590000e+00 -2.120000e+00  0.000000e+00
     vertex -1.590000e+00 -4.620000e+00  0.000000e+00
     vertex -1.590000e+00 -4.620000e+00  1.000000e-01
   endloop
 endfacet
 facet normal  1.000000e+00 -0.000000e+00  0.000000e+00
   outer loop
     vertex -9.500000e-01 -4.620000e+00  1.000000e-01
     vertex -9.500000e-01 -2.120000e+00  0.000000e+00
     vertex -9.500000e-01 -2.120000e+00  1.000000e-01
   endloop
 endfacet
 facet normal  1.000000e+00 -0.000000e+00  0.000000e+00
   outer loop
     vertex -9.500000e-01 -4.620000e+00  1.000000e-01
     vertex -9.500000e-01 -4.620000e+00  0.000000e+00
     vertex -9.500000e-01 -2.120000e+00  0.000000e+00
   endloop
 endfacet
 facet normal  0.000000e+00 -1.000000e+00  0.000000e+00
   outer loop
     vertex -1.590000e+00 -4.620000e+00  1.000000e-01
     vertex -1.590000e+00 -4.620000e+00  0.000000e+00
     vertex -9.500000e-01 -4.620000e+00  0.000000e+00
   endloop
 endfacet
 facet normal  0.000000e+00 -1.000000e+00  0.000000e+00
   outer loop
     vertex -1.590000e+00 -4.620000e+00  1.000000e-01
     vertex -9.500000e-01 -4.620000e+00  0.000000e+00
     vertex -9.500000e-01 -4.620000e+00  1.000000e-01
   endloop
 endfacet
 facet normal  0.000000e+00  1.000000e+00 -0.000000e+00
   outer loop
     vertex -9.500000e-01 -2.120000e+00  0.000000e+00
     vertex -1.590000e+00 -2.120000e+00  0.000000e+00
     vertex -1.590000e+00 -2.120000e+00  1.000000e-01
   endloop
 endfacet
 facet normal  0.000000e+00  1.000000e+00  0.000000e+00
   outer loop
     vertex -9.500000e-01 -2.120000e+00  1.000000e-01
     vertex -9.500000e-01 -2.120000e+00  0.000000e+00
     vertex -1.590000e+00 -2.120000e+00  1.000000e-01
   endloop
 endfacet
 facet normal  0.000000e+00  0.000000e+00 -1.000000e+00
   outer loop
     vertex -9.500000e-01 -4.620000e+00  0.000000e+00
     vertex -1.590000e+00 -4.620000e+00  0.000000e+00
     vertex -1.590000e+00 -2.120000e+00  0.000000e+00
   endloop
 endfacet
 facet normal  0.000000e+00  0.000000e+00 -1.000000e+00
   outer loop
     vertex -9.500000e-01 -4.620000e+00  0.000000e+00
     vertex -1.590000e+00 -2.120000e+00  0.000000e+00
     vertex -9.500000e-01 -2.120000e+00  0.000000e+00
   endloop
 endfacet
 facet normal -0.000000e+00  0.000000e+00  1.000000e+00
   outer loop
     vertex -1.590000e+00 -2.120000e+00  1.000000e-01
     vertex -1.590000e+00 -4.620000e+00  1.000000e-01
     vertex -9.500000e-01 -4.620000e+00  1.000000e-01
   endloop
 endfacet
 facet normal  0.000000e+00  0.000000e+00  1.000000e+00
   outer loop
     vertex -9.500000e-01 -2.120000e+00  1.000000e-01
     vertex -1.590000e+00 -2.120000e+00  1.000000e-01
     vertex -9.500000e-01 -4.620000e+00  1.000000e-01
   endloop
 endfacet
 facet normal -1.000000e+00 -0.000000e+00 -0.000000e+00
   outer loop
     vertex  3.490000e+00 -2.120000e+00  1.000000e-01
     vertex  3.490000e+00 -2.120000e+00  0.000000e+00
     vertex  3.490000e+00 -4.620000e+00  1.000000e-01
   endloop
 endfacet
 facet normal -1.000000e+00  0.000000e+00  0.000000e+00
   outer loop
     vertex  3.490000e+00 -2.120000e+00  0.000000e+00
     vertex  3.490000e+00 -4.620000e+00  0.000000e+00
     vertex  3.490000e+00 -4.620000e+00  1.000000e-01
   endloop
 endfacet
 facet normal  1.000000e+00 -0.000000e+00  0.000000e+00
   outer loop
     vertex  4.130000e+00 -4.620000e+00  1.000000e-01
     vertex  4.130000e+00 -2.120000e+00  0.000000e+00
     vertex  4.130000e+00 -2.120000e+00  1.000000e-01
   endloop
 endfacet
 facet normal  1.000000e+00 -0.000000e+00  0.000000e+00
   outer loop
     vertex  4.130000e+00 -4.620000e+00  1.000000e-01
     vertex  4.130000e+00 -4.620000e+00  0.000000e+00
     vertex  4.130000e+00 -2.120000e+00  0.000000e+00
   endloop
 endfacet
 facet normal  0.000000e+00 -1.000000e+00  0.000000e+00
   outer loop
     vertex  3.490000e+00 -4.620000e+00  0.000000e+00
     vertex  4.130000e+00 -4.620000e+00  0.000000e+00
     vertex  4.130000e+00 -4.620000e+00  1.000000e-01
   endloop
 endfacet
 facet normal  0.000000e+00 -1.000000e+00  0.000000e+00
   outer loop
     vertex  3.490000e+00 -4.620000e+00  1.000000e-01
     vertex  3.490000e+00 -4.620000e+00  0.000000e+00
     vertex  4.130000e+00 -4.620000e+00  1.000000e-01
   endloop
 endfacet
 facet normal  0.000000e+00  1.000000e+00  0.000000e+00
   outer loop
     vertex  4.130000e+00 -2.120000e+00  1.000000e-01
     vertex  4.130000e+00 -2.120000e+00  0.000000e+00
     vertex  3.490000e+00 -2.120000e+00  0.000000e+00
   endloop
 endfacet
 facet normal  0.000000e+00  1.000000e+00 -0.000000e+00
   outer loop
     vertex  4.130000e+00 -2.120000e+00  1.000000e-01
     vertex  3.490000e+00 -2.120000e+00  0.000000e+00
     vertex  3.490000e+00 -2.120000e+00  1.000000e-01
   endloop
 endfacet
 facet normal  0.000000e+00  0.000000e+00 -1.000000e+00
   outer loop
     vertex  3.490000e+00 -4.620000e+00  0.000000e+00
     vertex  3.490000e+00 -2.120000e+00  0.000000e+00
     vertex  4.130000e+00 -2.120000e+00  0.000000e+00
   endloop
 endfacet
 facet normal  0.000000e+00  0.000000e+00 -1.000000e+00
   outer loop
     vertex  4.130000e+00 -4.620000e+00  0.000000e+00
     vertex  3.490000e+00 -4.620000e+00  0.000000e+00
     vertex  4.130000e+00 -2.120000e+00  0.000000e+00
   endloop
 endfacet
 facet normal  0.000000e+00  0.000000e+00  1.000000e+00
   outer loop
     vertex  4.130000e+00 -2.120000e+00  1.000000e-01
     vertex  3.490000e+00 -2.120000e+00  1.000000e-01
     vertex  3.490000e+00 -4.620000e+00  1.000000e-01
   endloop
 endfacet
 facet normal -0.000000e+00  0.000000e+00  1.000000e+00
   outer loop
     vertex  4.130000e+00 -2.120000e+00  1.000000e-01
     vertex  3.490000e+00 -4.620000e+00  1.000000e-01
     vertex  4.130000e+00 -4.620000e+00  1.000000e-01
   endloop
 endfacet
 facet normal -1.000000e+00 -0.000000e+00 -0.000000e+00
   outer loop
     vertex  3.490000e+00  4.620000e+00  1.000000e-01
     vertex  3.490000e+00  4.620000e+00  0.000000e+00
     vertex  3.490000e+00  2.120000e+00  1.000000e-01
   endloop
 endfacet
 facet normal -1.000000e+00  0.000000e+00  0.000000e+00
   outer loop
     vertex  3.490000e+00  4.620000e+00  0.000000e+00
     vertex  3.490000e+00  2.120000e+00  0.000000e+00
     vertex  3.490000e+00  2.120000e+00  1.000000e-01
   endloop
 endfacet
 facet normal  1.000000e+00 -0.000000e+00  0.000000e+00
   outer loop
     vertex  4.130000e+00  2.120000e+00  1.000000e-01
     vertex  4.130000e+00  4.620000e+00  0.000000e+00
     vertex  4.130000e+00  4.620000e+00  1.000000e-01
   endloop
 endfacet
 facet normal  1.000000e+00 -0.000000e+00  0.000000e+00
   outer loop
     vertex  4.130000e+00  2.120000e+00  1.000000e-01
     vertex  4.130000e+00  2.120000e+00  0.000000e+00
     vertex  4.130000e+00  4.620000e+00  0.000000e+00
   endloop
 endfacet
 facet normal  0.000000e+00 -1.000000e+00  0.000000e+00
   outer loop
     vertex  3.490000e+00  2.120000e+00  0.000000e+00
     vertex  4.130000e+00  2.120000e+00  0.000000e+00
     vertex  4.130000e+00  2.120000e+00  1.000000e-01
   endloop
 endfacet
 facet normal  0.000000e+00 -1.000000e+00  0.000000e+00
   outer loop
     vertex  3.490000e+00  2.120000e+00  1.000000e-01
     vertex  3.490000e+00  2.120000e+00  0.000000e+00
     vertex  4.130000e+00  2.120000e+00  1.000000e-01
   endloop
 endfacet
 facet normal  0.000000e+00  1.000000e+00  0.000000e+00
   outer loop
     vertex  4.130000e+00  4.620000e+00  1.000000e-01
     vertex  4.130000e+00  4.620000e+00  0.000000e+00
     vertex  3.490000e+00  4.620000e+00  0.000000e+00
   endloop
 endfacet
 facet normal  0.000000e+00  1.000000e+00 -0.000000e+00
   outer loop
     vertex  4.130000e+00  4.620000e+00  1.000000e-01
     vertex  3.490000e+00  4.620000e+00  0.000000e+00
     vertex  3.490000e+00  4.620000e+00  1.000000e-01
   endloop
 endfacet
 facet normal  0.000000e+00  0.000000e+00 -1.000000e+00
   outer loop
     vertex  3.490000e+00  2.120000e+00  0.000000e+00
     vertex  3.490000e+00  4.620000e+00  0.000000e+00
     vertex  4.130000e+00  4.620000e+00  0.000000e+00
   endloop
 endfacet
 facet normal  0.000000e+00  0.000000e+00 -1.000000e+00
   outer loop
     vertex  4.130000e+00  2.120000e+00  0.000000e+00
     vertex  3.490000e+00  2.120000e+00  0.000000e+00
     vertex  4.130000e+00  4.620000e+00  0.000000e+00
   endloop
 endfacet
 facet normal  0.000000e+00  0.000000e+00  1.000000e+00
   outer loop
     vertex  4.130000e+00  4.620000e+00  1.000000e-01
     vertex  3.490000e+00  4.620000e+00  1.000000e-01
     vertex  3.490000e+00  2.120000e+00  1.000000e-01
   endloop
 endfacet
 facet normal -0.000000e+00  0.000000e+00  1.000000e+00
   outer loop
     vertex  4.130000e+00  4.620000e+00  1.000000e-01
     vertex  3.490000e+00  2.120000e+00  1.000000e-01
     vertex  4.130000e+00  2.120000e+00  1.000000e-01
   endloop
 endfacet
 facet normal -1.000000e+00 -0.000000e+00 -0.000000e+00
   outer loop
     vertex -4.130000e+00  4.620000e+00  1.000000e-01
     vertex -4.130000e+00  4.620000e+00  0.000000e+00
     vertex -4.130000e+00  2.120000e+00  1.000000e-01
   endloop
 endfacet
 facet normal -1.000000e+00  0.000000e+00  0.000000e+00
   outer loop
     vertex -4.130000e+00  4.620000e+00  0.000000e+00
     vertex -4.130000e+00  2.120000e+00  0.000000e+00
     vertex -4.130000e+00  2.120000e+00  1.000000e-01
   endloop
 endfacet
 facet normal  1.000000e+00 -0.000000e+00  0.000000e+00
   outer loop
     vertex -3.490000e+00  2.120000e+00  1.000000e-01
     vertex -3.490000e+00  4.620000e+00  0.000000e+00
     vertex -3.490000e+00  4.620000e+00  1.000000e-01
   endloop
 endfacet
 facet normal  1.000000e+00 -0.000000e+00  0.000000e+00
   outer loop
     vertex -3.490000e+00  2.120000e+00  1.000000e-01
     vertex -3.490000e+00  2.120000e+00  0.000000e+00
     vertex -3.490000e+00  4.620000e+00  0.000000e+00
   endloop
 endfacet
 facet normal  0.000000e+00 -1.000000e+00  0.000000e+00
   outer loop
     vertex -4.130000e+00  2.120000e+00  0.000000e+00
     vertex -3.490000e+00  2.120000e+00  0.000000e+00
     vertex -3.490000e+00  2.120000e+00  1.000000e-01
   endloop
 endfacet
 facet normal  0.000000e+00 -1.000000e+00  0.000000e+00
   outer loop
     vertex -4.130000e+00  2.120000e+00  1.000000e-01
     vertex -4.130000e+00  2.120000e+00  0.000000e+00
     vertex -3.490000e+00  2.120000e+00  1.000000e-01
   endloop
 endfacet
 facet normal  0.000000e+00  1.000000e+00  0.000000e+00
   outer loop
     vertex -3.490000e+00  4.620000e+00  1.000000e-01
     vertex -3.490000e+00  4.620000e+00  0.000000e+00
     vertex -4.130000e+00  4.620000e+00  0.000000e+00
   endloop
 endfacet
 facet normal  0.000000e+00  1.000000e+00 -0.000000e+00
   outer loop
     vertex -3.490000e+00  4.620000e+00  1.000000e-01
     vertex -4.130000e+00  4.620000e+00  0.000000e+00
     vertex -4.130000e+00  4.620000e+00  1.000000e-01
   endloop
 endfacet
 facet normal  0.000000e+00  0.000000e+00 -1.000000e+00
   outer loop
     vertex -4.130000e+00  2.120000e+00  0.000000e+00
     vertex -4.130000e+00  4.620000e+00  0.000000e+00
     vertex -3.490000e+00  4.620000e+00  0.000000e+00
   endloop
 endfacet
 facet normal  0.000000e+00  0.000000e+00 -1.000000e+00
   outer loop
     vertex -3.490000e+00  2.120000e+00  0.000000e+00
     vertex -4.130000e+00  2.120000e+00  0.000000e+00
     vertex -3.490000e+00  4.620000e+00  0.000000e+00
   endloop
 endfacet
 facet normal  0.000000e+00  0.000000e+00  1.000000e+00
   outer loop
     vertex -3.490000e+00  4.620000e+00  1.000000e-01
     vertex -4.130000e+00  4.620000e+00  1.000000e-01
     vertex -4.130000e+00  2.120000e+00  1.000000e-01
   endloop
 endfacet
 facet normal -0.000000e+00  0.000000e+00  1.000000e+00
   outer loop
     vertex -3.490000e+00  4.620000e+00  1.000000e-01
     vertex -4.130000e+00  2.120000e+00  1.000000e-01
     vertex -3.490000e+00  2.120000e+00  1.000000e-01
   endloop
 endfacet
endsolid
